<?xml version="1.0" encoding="iso-8859-1"?>
<!-- Generator: Adobe Illustrator 19.0.0, SVG Export Plug-In . SVG Version: 6.00 Build 0)  -->
<svg version="1.1" id="Layer_1" xmlns="http://www.w3.org/2000/svg" xmlns:xlink="http://www.w3.org/1999/xlink" x="0px" y="0px"
	 viewBox="0 0 390.788 390.788" style="enable-background:new 0 0 390.788 390.788;" xml:space="preserve">
<g>
	<g>
		<path d="M359.37,106.745c4.331-23.273,0-47.709-13.576-66.651c-43.895-60.703-108.929-37.948-125.22-24.372
			c-17.907,14.61-26.57,20.04-37.366,54.174c-10.861-5.947-23.273-9.762-36.331-9.762c-40.081,0-73.18,32.517-73.18,73.18
			c0,40.081,32.517,73.18,73.18,73.18h99.168v76.412c0,10.279-8.663,18.941-18.941,18.941H198.4
			c-7.046-42.796-52.558-57.988-53.139-58.505c-14.093-5.43-29.802-8.663-45.511-8.663C44.994,234.68,0,269.396,0,312.709
			c0,42.796,44.412,78.028,99.75,78.028c15.709,0,31.418-2.715,45.511-8.663c29.285-11.895,48.808-33.616,53.139-58.505h28.703
			c22.756,0,40.663-18.424,40.663-40.663v-76.929h70.982c28.703,0,52.04-23.273,52.04-51.459
			C390.271,133.315,377.794,114.891,359.37,106.745z M126.319,365.266c-8.663,2.198-17.325,3.232-26.57,3.232
			c-42.796,0-78.028-24.954-78.028-56.372c0-30.901,34.715-56.372,78.028-56.372c9.244,0,18.424,1.099,27.087,3.232
			C113.325,293.185,113.325,331.715,126.319,365.266z M146.36,357.185c-4.331-10.861-6.529-22.238-7.564-34.133h15.192
			c5.948,0,10.861-4.848,10.861-10.861c0-5.948-4.849-10.861-10.861-10.861h-15.192c1.099-11.378,3.814-22.756,7.564-33.616
			c19.523,10.861,30.901,27.087,30.901,44.412C177.261,330.099,165.883,346.325,146.36,357.185z M338.23,184.256H146.941
			c-28.186,0-51.459-22.756-51.459-51.459c0-28.186,22.756-51.459,51.459-51.459c14.093,0,27.087,5.43,36.849,15.709
			c9.374,8.986,18.424-2.715,18.941-7.047c0-22.756,12.477-42.279,30.319-56.372c11.895-9.244,61.22-28.186,94.836,18.941
			c11.895,16.808,14.61,39.047,8.663,58.505c-1.099,2.715-0.776,12.089,8.145,13.576c14.093,2.715,24.372,15.192,24.372,29.285
			C368.614,170.745,355.038,184.256,338.23,184.256z"/>
	</g>
</g>
<g>
</g>
<g>
</g>
<g>
</g>
<g>
</g>
<g>
</g>
<g>
</g>
<g>
</g>
<g>
</g>
<g>
</g>
<g>
</g>
<g>
</g>
<g>
</g>
<g>
</g>
<g>
</g>
<g>
</g>
</svg>
