<?xml version="1.0" encoding="iso-8859-1"?>
<!-- Generator: Adobe Illustrator 19.0.0, SVG Export Plug-In . SVG Version: 6.00 Build 0)  -->
<svg version="1.1" id="Capa_1" xmlns="http://www.w3.org/2000/svg" xmlns:xlink="http://www.w3.org/1999/xlink" x="0px" y="0px"
	 viewBox="0 0 468.724 468.724" style="enable-background:new 0 0 468.724 468.724;" xml:space="preserve">
<g>
	<g>
		<path d="M468.677,326.423V62.546c0-16.739-13.785-31.508-31.508-31.508H31.508C14.769,31.039,0,44.824,0,62.546v263.877
			c0,16.739,13.785,31.508,31.508,31.508H437.17C454.892,357.931,469.662,343.162,468.677,326.423z M448.985,325.439
			c0,5.908-4.923,11.815-11.815,11.815H31.508c-5.908,0-11.815-4.923-11.815-11.815V61.562c0-5.908,4.923-11.815,11.815-11.815
			h405.661c5.908,0,11.815,4.923,11.815,11.815V325.439z"/>
	</g>
</g>
<g>
	<g>
		<path d="M33.477,69.439v250.092H435.2h0V69.439H33.477z M415.508,299.839H53.17V89.131h362.338V299.839z"/>
	</g>
</g>
<g>
	<g>
		<rect x="261.908" y="348.085" width="19.692" height="79.754"/>
	</g>
</g>
<g>
	<g>
		<rect x="182.154" y="348.085" width="19.692" height="79.754"/>
	</g>
</g>
<g>
	<g>
		<rect x="100.431" y="417.993" width="251.077" height="19.692"/>
	</g>
</g>
<g>
	<g>
		<rect x="116.185" y="108.823" width="19.692" height="81.723"/>
	</g>
</g>
<g>
	<g>
		<path d="M126.031,188.577c-17.723,0-32.492,14.769-32.492,32.492s14.769,32.492,32.492,32.492s32.492-14.769,32.492-32.492
			S143.754,188.577,126.031,188.577z M126.031,232.884c-6.892,0-12.8-5.907-12.8-12.8c0-6.892,5.907-12.8,12.8-12.8
			c6.892,0,12.8,5.908,12.8,12.8S132.923,232.884,126.031,232.884z"/>
	</g>
</g>
<g>
	<g>
		<rect x="116.185" y="243.716" width="19.692" height="22.646"/>
	</g>
</g>
<g>
	<g>
		<rect x="224.493" y="184.639" width="19.692" height="81.723"/>
	</g>
</g>
<g>
	<g>
		<path d="M234.339,121.623c-17.723,0-32.492,14.769-32.492,32.492c0,8.861,3.938,17.723,9.846,23.631
			c5.908,6.892,13.785,9.846,22.646,9.846c17.723,0,32.492-14.769,32.493-33.477C266.831,136.393,252.062,121.623,234.339,121.623z
			 M234.339,166.915c-2.954,0-5.908-0.985-8.862-3.938c-2.954-1.969-3.938-4.923-3.938-8.861c0-6.892,5.908-12.8,12.8-12.8
			s12.8,5.908,12.8,12.8C247.139,161.008,241.231,166.915,234.339,166.915z"/>
	</g>
</g>
<g>
	<g>
		<rect x="224.493" y="108.823" width="19.692" height="22.646"/>
	</g>
</g>
<g>
	<g>
		<rect x="332.8" y="108.823" width="19.692" height="81.723"/>
	</g>
</g>
<g>
	<g>
		<path d="M342.646,188.577c-17.723,0-32.492,14.769-32.492,32.492s14.769,32.492,32.492,32.492
			c17.723,0,32.492-14.769,32.492-32.492S360.369,188.577,342.646,188.577z M342.646,232.884c-6.892,0-12.8-5.907-12.8-12.8
			c0-6.892,5.908-12.8,12.8-12.8c6.892,0,12.8,5.908,12.8,12.8S349.539,232.884,342.646,232.884z"/>
	</g>
</g>
<g>
	<g>
		<rect x="332.8" y="243.716" width="19.692" height="22.646"/>
	</g>
</g>
<g>
</g>
<g>
</g>
<g>
</g>
<g>
</g>
<g>
</g>
<g>
</g>
<g>
</g>
<g>
</g>
<g>
</g>
<g>
</g>
<g>
</g>
<g>
</g>
<g>
</g>
<g>
</g>
<g>
</g>
</svg>
