<svg id="Capa_1" enable-background="new 0 0 512 512" height="512" viewBox="0 0 512 512" width="512" xmlns="http://www.w3.org/2000/svg"><g><g><path d="m474.195 0h-373.007c-4.143 0-7.5 3.358-7.5 7.5s3.357 7.5 7.5 7.5h373.008c12.574 0 22.804 10.23 22.804 22.805v285.447h-28.868c-4.143 0-7.5 3.358-7.5 7.5s3.357 7.5 7.5 7.5h28.868v22.805c0 12.575-10.23 22.805-22.805 22.805h-436.39c-12.575 0-22.805-10.23-22.805-22.805v-22.805h418.107c4.143 0 7.5-3.358 7.5-7.5s-3.357-7.5-7.5-7.5h-137.282v-16.377c0-26.206-17.678-49.246-42.99-56.03l-54.995-14.741v-21.306c19.339-11.543 32.325-32.672 32.325-56.784v-77.782c0-16.39-13.334-29.724-29.724-29.724h-9.783c-3.217-10.514-13.01-18.183-24.563-18.183h-20.203c-26.416 0-47.907 21.491-47.907 47.907v77.782c0 24.112 12.986 45.241 32.325 56.784v21.306l-54.995 14.741c-25.313 6.784-42.99 29.825-42.99 56.03v16.377h-17.325v-285.447c0-12.575 10.23-22.805 22.805-22.805h28.32c4.143 0 7.5-3.358 7.5-7.5s-3.357-7.5-7.5-7.5h-28.32c-20.846 0-37.805 16.959-37.805 37.805v323.252c0 20.846 16.959 37.805 37.805 37.805h153.6l-12.34 65.813h-18.02c-13.048 0-23.663 10.615-23.663 23.663s10.615 23.662 23.663 23.662h189.91c13.048 0 23.663-10.615 23.663-23.663s-10.615-23.663-23.663-23.663h-18.02l-12.34-65.813h153.6c20.846 0 37.805-16.959 37.805-37.805v-323.251c0-20.846-16.959-37.805-37.805-37.805zm-326.646 271.285-21.776 16.591-9.534-32.471 15.416-4.132c2.49 8.556 8.278 15.717 15.894 20.012zm48.945-20.013 15.416 4.132-9.534 32.471-21.776-16.591c7.618-4.294 13.405-11.455 15.894-20.012zm18.671-171.04v31.896h-10.684c-7.005 0-12.703-5.699-12.703-12.703v-33.917h8.663c8.119 0 14.724 6.605 14.724 14.724zm-102.18 0c0-18.145 14.762-32.907 32.907-32.907h20.203c5.891 0 10.683 4.792 10.683 10.683v41.417c0 7.004-5.698 12.703-12.703 12.703h-51.09zm0 77.782v-30.886h51.09c7.962 0 15.145-3.381 20.203-8.777 5.058 5.396 12.241 8.777 20.203 8.777h10.684v30.886c0 28.171-22.919 51.089-51.09 51.089s-51.09-22.918-51.09-51.089zm51.09 66.09c6.518 0 12.812-.964 18.765-2.73v20.484c0 10.347-8.418 18.764-18.765 18.764s-18.765-8.417-18.765-18.764v-20.484c5.953 1.766 12.247 2.73 18.765 2.73zm-116.75 82.771c0-19.429 13.106-36.512 31.873-41.542l22.549-6.044 12.705 43.271c.695 2.369 2.513 4.244 4.858 5.013.765.251 1.553.374 2.337.374 1.622 0 3.223-.526 4.546-1.534l37.882-28.862 37.882 28.862c1.323 1.008 2.924 1.534 4.546 1.534.783 0 1.573-.123 2.337-.374 2.346-.77 4.163-2.645 4.858-5.013l12.705-43.271 22.549 6.044c18.767 5.03 31.873 22.113 31.873 41.542v16.377h-38.539v-12.703c0-4.142-3.357-7.5-7.5-7.5s-7.5 3.358-7.5 7.5v12.703h-126.422v-12.703c0-4.142-3.357-7.5-7.5-7.5s-7.5 3.358-7.5 7.5v12.703h-38.539zm270.349 157.8h-80.067c-4.143 0-7.5 3.358-7.5 7.5s3.357 7.5 7.5 7.5h113.348c4.776 0 8.663 3.886 8.663 8.663s-3.887 8.662-8.663 8.662h-189.91c-4.776 0-8.663-3.886-8.663-8.663s3.887-8.663 8.663-8.663h41.473c4.143 0 7.5-3.358 7.5-7.5s-3.357-7.5-7.5-7.5h-8.192l12.34-65.813h98.669z"/><path d="m309.952 269.636c1.131.625 2.38.936 3.627.936 1.388 0 2.773-.385 3.991-1.15l33.525-21.073h108.957c9.705 0 17.602-7.896 17.602-17.602v-180.82c0-9.706-7.896-17.602-17.602-17.602h-167.686c-9.705 0-17.602 7.896-17.602 17.602v180.819c0 9.706 7.896 17.602 17.602 17.602h13.713v14.724c0 2.729 1.484 5.243 3.873 6.564zm-17.586-36.288c-1.435 0-2.602-1.167-2.602-2.602v-180.819c0-1.435 1.167-2.602 2.602-2.602h167.687c1.435 0 2.602 1.167 2.602 2.602v180.819c0 1.435-1.167 2.602-2.602 2.602h-111.118c-1.412 0-2.796.399-3.991 1.15l-23.864 15v-8.651c0-4.142-3.357-7.5-7.5-7.5h-21.214z"/><path d="m316.609 81.671h119.199c4.143 0 7.5-3.358 7.5-7.5s-3.357-7.5-7.5-7.5h-119.199c-4.143 0-7.5 3.358-7.5 7.5s3.358 7.5 7.5 7.5z"/><path d="m316.609 113.996h119.199c4.143 0 7.5-3.358 7.5-7.5s-3.357-7.5-7.5-7.5h-119.199c-4.143 0-7.5 3.358-7.5 7.5s3.358 7.5 7.5 7.5z"/><path d="m316.609 143.291h67.682c4.143 0 7.5-3.358 7.5-7.5s-3.357-7.5-7.5-7.5h-67.682c-4.143 0-7.5 3.358-7.5 7.5s3.358 7.5 7.5 7.5z"/><path d="m435.809 128.291h-19.192c-4.143 0-7.5 3.358-7.5 7.5s3.357 7.5 7.5 7.5h19.192c4.143 0 7.5-3.358 7.5-7.5s-3.358-7.5-7.5-7.5z"/><path d="m435.809 160.616h-54.549c-4.143 0-7.5 3.358-7.5 7.5s3.357 7.5 7.5 7.5h54.549c4.143 0 7.5-3.358 7.5-7.5s-3.358-7.5-7.5-7.5z"/><path d="m316.609 175.616h32.325c4.143 0 7.5-3.358 7.5-7.5s-3.357-7.5-7.5-7.5h-32.325c-4.143 0-7.5 3.358-7.5 7.5s3.358 7.5 7.5 7.5z"/><path d="m394.393 207.941c4.143 0 7.5-3.358 7.5-7.5s-3.357-7.5-7.5-7.5h-77.783c-4.143 0-7.5 3.358-7.5 7.5s3.357 7.5 7.5 7.5z"/></g></g></svg>