<?xml version="1.0" encoding="iso-8859-1"?>
<!-- Generator: Adobe Illustrator 19.0.0, SVG Export Plug-In . SVG Version: 6.00 Build 0)  -->
<svg version="1.1" id="Layer_1" xmlns="http://www.w3.org/2000/svg" xmlns:xlink="http://www.w3.org/1999/xlink" x="0px" y="0px"
	 viewBox="0 0 505.127 505.127" style="enable-background:new 0 0 505.127 505.127;" xml:space="preserve">
<g>
	<g>
		<path d="M157.878,286.299c-28.756,0-51.901,23.145-51.901,51.901s23.145,51.2,51.901,51.2s51.901-23.145,51.901-51.901
			C209.78,308.743,185.933,286.299,157.878,286.299z M157.878,361.346c-13.326,0-23.847-10.521-23.847-23.847
			s10.521-23.847,23.847-23.847s23.847,10.521,23.847,23.847C181.024,350.825,170.503,361.346,157.878,361.346z"/>
	</g>
</g>
<g>
	<g>
		<path d="M392.837,323.472h-23.145v-22.444c0-7.715-6.312-14.027-14.027-14.027c-7.715,0-14.027,6.312-14.027,14.027v22.444
			h-22.444c-7.715,0-14.027,6.312-14.027,14.027c0,7.715,6.312,14.027,14.027,14.027h23.145v22.444
			c0,7.715,6.312,14.027,14.027,14.027c7.715,0,14.027-6.312,14.027-14.027v-22.444h23.145c7.715,0,14.027-6.312,14.027-14.027
			C407.566,329.784,401.254,323.472,392.837,323.472z"/>
	</g>
</g>
<g>
	<g>
		<path d="M505.057,204.941c0-60.318-49.096-109.414-109.414-109.414c-5.611,0-10.521,0.701-16.132,1.403
			c-20.34-50.499-66.63-87.671-120.636-95.386C183.829-8.977,112.991,35.209,89.846,106.047
			c-51.2,7.014-89.775,50.499-89.775,103.101c0,42.082,25.249,79.255,62.422,95.386c-6.312,15.43-9.819,31.562-9.819,48.395v79.255
			c-1.403,67.331,58.915,72.943,65.929,72.943c23.847,0,45.589-12.625,57.512-32.964c3.507-5.611,7.014-11.923,10.521-16.833
			c14.729-21.742,39.277-35.069,65.227-35.069c26.652,0,51.2,13.326,65.227,35.069c3.507,5.611,7.014,11.222,10.521,16.833
			c11.923,20.34,33.666,32.964,57.512,32.964c7.014,0,68.033-4.91,65.929-72.943V352.93c0-17.534-3.507-33.666-10.521-49.096
			C479.807,286.299,505.057,247.724,505.057,204.941z M385.824,477.072c-13.326,0-25.951-7.014-32.964-18.937
			c-3.507-6.312-7.715-12.625-11.923-18.937c-19.638-29.458-53.304-47.693-89.074-47.693c-35.77,0-68.734,17.534-89.074,47.693
			c-4.208,6.312-7.715,12.625-11.923,18.937c-7.014,11.923-19.638,18.937-32.964,18.937c-4.208,0-39.277-2.805-38.575-42.082
			c0-0.701,0-81.359,0-81.359c0-25.249,9.819-48.395,27.353-66.63c17.534-17.534,41.381-28.055,66.63-28.055h155.003
			c25.249,0,49.096,9.819,66.63,28.055c17.534,17.534,27.353,41.381,27.353,66.63c2.104-0.701,2.104,80.658,2.104,81.359
			C425.802,474.267,390.032,477.072,385.824,477.072z M224.509,230.891v-15.43h56.11v15.43H224.509z M427.906,279.286
			c-3.507-4.208-7.014-8.416-10.521-12.625c-23.145-23.145-54.005-35.77-86.97-35.77h-21.742v-29.458
			c0-7.715-6.312-14.027-14.027-14.027h-28.055v-68.033c0-7.715-6.312-14.027-14.027-14.027c-7.715,0-14.027,6.312-14.027,14.027
			v68.033h-28.055c-7.715,0-14.027,6.312-14.027,14.027v29.458h-21.742c-32.964,0-63.825,12.625-86.97,35.77
			c-4.208,4.208-8.416,9.118-11.923,14.027c-28.756-11.222-48.395-39.277-48.395-70.838c0-40.679,32.263-74.345,72.942-76.449
			c6.312,0,11.222-4.208,12.625-10.521c16.132-62.422,76.449-102.4,140.274-93.282c47.693,7.014,88.373,41.381,102.4,87.671
			c2.104,7.014,9.819,11.222,16.833,9.118c7.014-2.104,14.027-2.805,21.041-2.805c44.888,0,81.359,36.471,81.359,81.359
			C477.002,237.204,457.363,266.661,427.906,279.286z"/>
	</g>
</g>
<g>
</g>
<g>
</g>
<g>
</g>
<g>
</g>
<g>
</g>
<g>
</g>
<g>
</g>
<g>
</g>
<g>
</g>
<g>
</g>
<g>
</g>
<g>
</g>
<g>
</g>
<g>
</g>
<g>
</g>
</svg>
